# xmcd
#
# Track frame offsets: 
#        170
#        19835
#        36962
#        55117
#        83772
#        104090
#        122540
#        142757
#        163922
#        189582
#        204172
#        225212
#        252025
#        271532
#        287387
#
# Disc length: 4213 seconds
#
# Revision: 5
# Processed by: cddbd v1.5.2PL0 Copyright (c) Steve Scherf et al.
# Submitted via: ExactAudioCopy v0.95a5
#
DISCID=b910730f
DTITLE=Mark Heard - Satellite Sky
DYEAR=1992
DGENRE=Christian Rock
TTITLE0=Tip Of My Tongue
TTITLE1=Satellite Sky
TTITLE2=Big Wheels Roll
TTITLE3=Orphans Of God
TTITLE4=Another Day In Limbo
TTITLE5=Language Of Love
TTITLE6=Freight Train To Nowhere
TTITLE7=Long Way Down
TTITLE8=A Broken Man
TTITLE9=Love Is So Blind
TTITLE10=Hammers And Nails
TTITLE11=We Know Too Much
TTITLE12=Lost On Purpose
TTITLE13=Nothing But The Wind
TTITLE14=Treasure Of The Broken Land
EXTD=
EXTT0=
EXTT1=
EXTT2=
EXTT3=
EXTT4=
EXTT5=
EXTT6=
EXTT7=
EXTT8=
EXTT9=
EXTT10=
EXTT11=
EXTT12=
EXTT13=
EXTT14=
PLAYORDER=
